Coordinates
version=1
nRows=22
nColumns=24
inDegrees=yes

Units are S.I. units (second, meters, Newtons, ...)
Angles are in degrees.

endheader
time	pelvis_tilt	pelvis_list	pelvis_rotation	pelvis_tx	pelvis_ty	pelvis_tz	hip_flexion_r	hip_adduction_r	hip_rotation_r	knee_angle_r	ankle_angle_r	subtalar_angle_r	mtp_angle_r	hip_flexion_l	hip_adduction_l	hip_rotation_l	knee_angle_l	ankle_angle_l	subtalar_angle_l	mtp_angle_l	lumbar_extension	lumbar_bending	lumbar_rotation
      0.66466667	     -1.81016573	     -4.40431174	      3.49868544	     -0.45979528	      0.90173755	      0.30968739	     13.61739509	     11.11916861	     -1.35218375	    -23.60736479	     12.36167233	     -5.18394456	      3.79565863	     22.60159476	     -8.72887365	     -6.26505882	    -78.17289104	      2.83847388	     -7.46777265	     -0.44527124	     -9.21612424	      5.90256466	      1.49631045
      0.66883333	     -1.87796627	     -4.19407717	      3.39171948	     -0.45424579	      0.90294933	      0.30968772	     12.95696484	     10.92838062	     -1.14376757	    -22.99623212	     12.39739934	     -5.09358386	      3.79643411	     23.34555503	     -8.39198853	     -6.38218571	    -77.77551145	      3.21210305	     -7.93831780	     -0.45375849	     -9.18224770	      5.67864984	      1.65124796
      0.67300000	     -1.92759898	     -3.98051345	      3.27631975	     -0.44867984	      0.90416377	      0.30969386	     12.27197570	     10.73229533	     -0.93058717	    -22.37440925	     12.42525394	     -4.99458202	      3.79821334	     24.04237735	     -8.05618117	     -6.50665814	    -77.29812037	      3.57523427	     -8.35497369	     -0.46291525	     -9.16712536	      5.45097498	      1.80607586
      0.67716667	     -1.94954287	     -3.76000473	      3.14955019	     -0.44308537	      0.90540329	      0.30972763	     11.54599846	     10.53125060	     -0.70257162	    -21.73209859	     12.46327610	     -4.91274008	      3.80311724	     24.67544155	     -7.72449142	     -6.64816868	    -76.72817964	      3.86853039	     -8.74648326	     -0.48201085	     -9.18171981	      5.20710368	      2.03210439
      0.68133333	     -1.97382564	     -3.54156716	      3.00752769	     -0.43749896	      0.90658794	      0.30977141	     10.83214919	     10.32757304	     -0.47383983	    -21.10155624	     12.45605895	     -4.80731292	      3.80636058	     25.28717780	     -7.39842043	     -6.79299573	    -76.09453604	      4.23813091	     -9.06044622	     -0.49305397	     -9.19970955	      4.97637681	      2.16818726
      0.68550000	     -1.96916253	     -3.32003891	      2.85711033	     -0.43188233	      0.90778525	      0.30982687	     10.07754988	     10.11996951	     -0.23777771	    -20.45312157	     12.45116140	     -4.71363753	      3.80998766	     25.83628037	     -7.07855423	     -6.94887170	    -75.37977287	      4.55025372	     -9.35315201	     -0.50667877	     -9.24540561	      4.73202704	      2.33248343
      0.68966667	     -1.94764100	     -3.09921473	      2.69597324	     -0.42625941	      0.90896063	      0.30990487	      9.30444600	      9.91118059	      0.00289712	    -19.79895451	     12.44252974	     -4.62359678	      3.81440142	     26.34038253	     -6.76906259	     -7.10858004	    -74.59324825	      4.84340560	     -9.60082598	     -0.52203451	     -9.30930519	      4.48867569	      2.51638070
      0.69383333	     -1.91257938	     -2.88451450	      2.52775925	     -0.42063736	      0.91009727	      0.30999901	      8.51740999	      9.70678772	      0.24722395	    -19.13939526	     12.42717611	     -4.53654462	      3.81942180	     26.80818374	     -6.47444978	     -7.26872174	    -73.74367185	      5.11464969	     -9.80252829	     -0.53902181	     -9.39055050	      4.25166633	      2.71021196
      0.69800000	     -1.84698216	     -2.68812482	      2.36294384	     -0.41499344	      0.91121583	      0.31010626	      7.68557063	      9.52148297	      0.49898504	    -18.45090583	     12.42729616	     -4.47910133	      3.82844776	     27.22394157	     -6.20957219	     -7.41949465	    -72.83741717	      5.34832139	     -9.96469556	     -0.56618434	     -9.50147614	      4.02780544	      2.96005434
      0.70216667	     -1.81081946	     -2.47581114	      2.16712574	     -0.40937720	      0.91223006	      0.31021663	      6.91439048	      9.30701011	      0.74085097	    -17.81435653	     12.36883293	     -4.37695896	      3.83344061	     27.63995162	     -5.93090237	     -7.58781349	    -71.86155721	      5.62051424	    -10.08514848	     -0.58316462	     -9.57896911	      3.79377620	      3.11635235
      0.70633333	     -1.74007546	     -2.27888075	      1.97706750	     -0.40374636	      0.91322502	      0.31034232	      6.09663188	      9.10803434	      0.98166885	    -17.15284978	     12.33748340	     -4.28700122	      3.83990142	     27.99957965	     -5.67628955	     -7.74353754	    -70.82980163	      5.84691742	    -10.18303998	     -0.60274830	     -9.69644564	      3.56980190	      3.31027285
      0.71050000	     -1.66079093	     -2.09670680	      1.78433925	     -0.39812439	      0.91415104	      0.31047752	      5.27318993	      8.92163869	      1.22305135	    -16.49052592	     12.30620023	     -4.21239632	      3.84787318	     28.33327487	     -5.44458634	     -7.89088312	    -69.74779043	      6.05977038	    -10.24428879	     -0.62543864	     -9.82075665	      3.36528369	      3.52583831
      0.71466667	     -1.58553341	     -1.92128924	      1.58258980	     -0.39251726	      0.91498935	      0.31062918	      4.46473982	      8.73645763	      1.45893976	    -15.84139426	     12.26266259	     -4.13020404	      3.85626301	     28.65166422	     -5.22808603	     -8.03859880	    -68.61400854	      6.26410134	    -10.28002007	     -0.64724515	     -9.94149258	      3.16035858	      3.73186737
      0.71883333	     -1.49175387	     -1.77534597	      1.39239048	     -0.38690007	      0.91576182	      0.31077671	      3.62849422	      8.58059534	      1.69357448	    -15.17037278	     12.24557615	     -4.07631704	      3.87016987	     28.93859306	     -5.04489705	     -8.15976417	    -67.44149493	      6.44698497	    -10.28788680	     -0.67781598	    -10.07830251	      2.98765505	      3.98270015
      0.72300000	     -1.41891109	     -1.62327508	      1.18464977	     -0.38130728	      0.91643029	      0.31093045	      2.83675296	      8.40835652	      1.91625049	    -14.53610204	     12.20349286	     -3.99147381	      3.88464864	     29.22313338	     -4.85971674	     -8.28689258	    -66.20839108	      6.62489149	    -10.27725712	     -0.70667599	    -10.19238481	      2.81001436	      4.19489124
      0.72716667	     -1.36677974	     -1.47375621	      0.96660783	     -0.37574209	      0.91698788	      0.31108437	      2.09011819	      8.23033237	      2.11935354	    -13.93893929	     12.13963226	     -3.87417594	      3.89481912	     29.50953147	     -4.68023752	     -8.41068257	    -64.92101612	      6.79411077	    -10.24690788	     -0.72629160	    -10.28101679	      2.62938544	      4.36248368
      0.73133333	     -1.29484739	     -1.34800200	      0.76117030	     -0.37017040	      0.91747843	      0.31122968	      1.31549959	      8.07446681	      2.31595493	    -13.32485111	     12.11312290	     -3.77156612	      3.90810764	     29.76151878	     -4.52712871	     -8.51163966	    -63.59541382	      6.93822843	    -10.20929813	     -0.74703744	    -10.39568956	      2.48095600	      4.56670041
      0.73550000	     -1.23444938	     -1.23508649	      0.55319759	     -0.36461981	      0.91786808	      0.31138352	      0.56636805	      7.92771917	      2.49971536	    -12.72740394	     12.07881782	     -3.66293430	      3.92212051	     30.00845970	     -4.39184024	     -8.60418197	    -62.22204818	      7.07102294	    -10.15331174	     -0.76683080	    -10.49428010	      2.33843842	      4.77019011
      0.73966667	     -1.17817733	     -1.14177589	      0.34767570	     -0.35907198	      0.91815835	      0.31152993	     -0.17327244	      7.79719729	      2.67387994	    -12.13659045	     12.05785525	     -3.55190970	      3.93940156	     30.24432210	     -4.27880878	     -8.68056340	    -60.80933834	      7.18871048	    -10.08933505	     -0.78721632	    -10.58663096	      2.22348711	      4.98582200
      0.74383333	     -1.13640680	     -1.05988627	      0.14510975	     -0.35353508	      0.91834059	      0.31167249	     -0.88662797	      7.67348533	      2.83318481	    -11.56254045	     12.04073132	     -3.43558026	      3.95926675	     30.47945200	     -4.17926904	     -8.74383891	    -59.35356716	      7.28835650	    -10.01736315	     -0.80723034	    -10.66021861	      2.11968621	      5.19531331
      0.74800000	     -1.09427614	     -1.00710220	     -0.04677899	     -0.34800029	      0.91842557	      0.31179683	     -1.60186659	      7.57869972	      2.98762318	    -10.98282508	     12.05057930	     -3.32432017	      3.99376403	     30.70242001	     -4.10856810	     -8.78278094	    -57.86764387	      7.37565438	     -9.94233016	     -0.83596797	    -10.74079827	      2.05294085	      5.45218609
      0.75216667	     -1.09063980	     -0.94312182	     -0.25363077	     -0.34247307	      0.91839193	      0.31191283	     -2.24473873	      7.46191802	      3.10491709	    -10.46021440	     12.02554613	     -3.17604843	      4.01873288	     30.93660572	     -4.03086938	     -8.83309718	    -56.31834140	      7.43892532	     -9.85066267	     -0.85412233	    -10.76402200	      1.96726383	      5.62414014
